#!OML:ASF H:\Terrain\Patient Classification 1\Terrain2\Thursday\justin.ASF
:FULLY-SPECIFIED
:DEGREES
3840
root 27.7411 17.6756 -10.8928 1767.75 82.8015 330.347
lowerback 5.42258 0.514555 0.0992696
upperback 2.17478 0.776791 2.46082
thorax -0.836148 0.404666 2.42626
lowerneck -14.3935 -2.9305 -9.36733
upperneck 32.8396 -2.37086 5.15444
head 13.7302 -1.18952 3.40427
rclavicle -1.58158e-014 3.57812e-015
rhumerus -33.8148 -12.6565 -77.5408
rradius 37.4088
rwrist -14.3043
rhand -23.7783 12.8177
rfingers 7.12502
rthumb 2.6915 -17.1451
lclavicle -1.58158e-014 3.57812e-015
lhumerus -28.7402 2.41611 82.3934
lradius 45.4983
lwrist 7.52036
lhand -19.0295 20.675
lfingers 7.12502
lthumb 7.2767 50.5299
rfemur -12.2826 -12.7087 23.2067
rtibia 36.9239
rfoot -14.8836 -10.4167
rtoes -0.361371
lfemur -6.72214 -3.22302 -16.4668
ltibia 26.8758
lfoot -12.1756 -10.8029
ltoes 20.8175
3841
root 27.7728 17.664 -10.8846 1769.18 82.6621 331.749
lowerback 5.44473 0.588943 0.323381
upperback 2.13098 0.883786 2.30352
thorax -0.892408 0.458723 2.13084
lowerneck -14.4768 -2.93827 -9.20384
upperneck 32.9334 -2.42012 5.15244
head 13.7904 -1.19041 3.37081
rclavicle -3.27995e-015 -7.95139e-015
rhumerus -33.9628 -12.174 -77.6819
rradius 37.5001
rwrist -14.7756
rhand -23.8423 12.8995
rfingers 7.12502
rthumb 2.6297 -17.064
lclavicle -3.27995e-015 -7.95139e-015
lhumerus -28.8715 2.58858 82.3189
lradius 44.9759
lwrist 7.32752
lhand -19.0879 20.3558
lfingers 7.12502
lthumb 7.22029 50.2127
rfemur -11.7428 -12.3313 23.2661
rtibia 36.0338
rfoot -15.2728 -11.0335
rtoes 0.229393
lfemur -6.67336 -3.72277 -16.6237
ltibia 27.0505
lfoot -12.5061 -10.0623
ltoes 20.5941
3842
root 27.804 17.6563 -10.8728 1771.42 82.4523 333.905
lowerback 5.37538 0.630932 0.452635
upperback 2.08618 0.940799 2.1549
thorax -0.897417 0.486848 1.90198
lowerneck -14.4988 -2.8975 -9.23451
upperneck 32.9211 -2.40272 5.30054
head 13.7895 -1.16761 3.43881
rclavicle -8.85834e-015 -2.42517e-014
rhumerus -33.9526 -12.072 -77.6734
rradius 37.4495
rwrist -14.7014
rhand -23.3313 12.9198
rfingers 7.12502
rthumb 3.12318 -17.0371
lclavicle -8.85834e-015 -2.42517e-014
lhumerus -29.1043 3.14681 82.2122
lradius 44.5075
lwrist 7.09389
lhand -19.2584 20.4164
lfingers 7.12502
lthumb 7.05569 50.2788
rfemur -11.3104 -11.7141 23.2741
rtibia 35.2411
rfoot -15.5713 -11.6313
rtoes 2.78765
lfemur -6.67404 -3.61254 -16.783
ltibia 27.1953
lfoot -12.9236 -9.65979
ltoes 18.6978
3843
root 27.8342 17.6585 -10.8595 1772.79 82.183 335.158
lowerback 5.2941 0.597789 0.582246
upperback 2.01094 0.901702 2.1583
thorax -0.926376 0.467271 1.83538
lowerneck -14.5873 -2.79857 -9.50065
upperneck 33.0123 -2.20839 5.41937
head 13.8373 -1.10153 3.56879
rclavicle 9.20621e-015 -5.76476e-015
rhumerus -33.8375 -11.7353 -77.6088
rradius 37.2444
rwrist -14.9031
rhand -22.779 13.0994
rfingers 7.12502
rthumb 3.65654 -16.849
lclavicle 9.20621e-015 -5.76476e-015
lhumerus -29.3902 4.25591 82.2009
lradius 43.9517
lwrist 6.55988
lhand -19.7834 20.5648
lfingers 7.12502
lthumb 6.54889 50.4435
rfemur -10.9053 -11.2624 23.3808
rtibia 34.5117
rfoot -16.1517 -11.8868
rtoes 5.90266
lfemur -6.69026 -3.40405 -16.7897
ltibia 27.2984
lfoot -13.3203 -9.36427
ltoes 16.5587
3844
root 27.862 17.6646 -10.8406 1773.14 81.8745 335.358
lowerback 5.24368 0.563005 0.733878
upperback 1.9081 0.864124 2.22107
thorax -1.00163 0.448666 1.81693
lowerneck -14.561 -2.67722 -9.76388
upperneck 33.0489 -2.00745 5.58417
head 13.8337 -1.02569 3.71586
rclavicle -1.73564e-014 -5.76476e-015
rhumerus -33.8035 -11.2014 -77.6923
rradius 37.037
rwrist -15.1602
rhand -22.75 13.241
rfingers 7.12502
rthumb 3.68453 -16.7069
lclavicle -1.73564e-014 -5.76476e-015
lhumerus -29.7904 4.92776 82.1927
lradius 43.5015
lwrist 6.21574
lhand -20.0266 20.7858
lfingers 7.12502
lthumb 6.3141 50.6717
rfemur -10.5765 -10.6768 23.6527
rtibia 33.8822
rfoot -16.5745 -12.1338
rtoes 6.90354
lfemur -6.71423 -3.56887 -16.6273
ltibia 27.3887
lfoot -13.4408 -8.99057
ltoes 16.9176
